<svg width="30" height="24" viewBox="0 0 30 24" fill="none" xmlns="http://www.w3.org/2000/svg">
<path d="M5.55506 0.499128C5.41776 0.371686 5.23774 0.300241 5.05041 0.298849C4.86308 0.297457 4.68202 0.36622 4.54284 0.491607C4.40366 0.616995 4.31644 0.789929 4.29834 0.976385C4.28025 1.16284 4.33259 1.34932 4.44506 1.49913L7.05506 4.37413C2.39506 7.11163 0.401312 11.4991 0.315062 11.6954C0.272327 11.7914 0.250244 11.8953 0.250244 12.0004C0.250244 12.1055 0.272327 12.2094 0.315062 12.3054C0.357562 12.4016 1.39756 14.7079 3.72006 17.0304C5.87506 19.1829 9.57756 21.7491 15.0001 21.7491C17.2666 21.7629 19.5089 21.283 21.5713 20.3429L24.4463 23.5041C24.5802 23.6513 24.7672 23.7393 24.966 23.7487C25.1647 23.758 25.3591 23.6881 25.5063 23.5541C25.6535 23.4202 25.7415 23.2333 25.7508 23.0345C25.7602 22.8357 25.6902 22.6413 25.5563 22.4941L5.55506 0.499128ZM11.6326 9.41413L17.2576 15.6041C16.413 16.1318 15.41 16.3462 14.4236 16.2099C13.4371 16.0735 12.5298 15.5951 11.8601 14.8581C11.1904 14.1211 10.8007 13.1724 10.7591 12.1774C10.7176 11.1824 11.0267 10.2044 11.6326 9.41413ZM15.0001 20.2491C11.0776 20.2491 7.65256 18.8216 4.81881 16.0079C3.63062 14.8276 2.62537 13.4764 1.83631 11.9991C2.37256 10.9741 4.34881 7.60163 8.08631 5.51038L10.6113 8.28663C9.71233 9.3519 9.23092 10.7075 9.25664 12.1011C9.28236 13.4948 9.81347 14.8317 10.7512 15.863C11.6888 16.8944 12.9692 17.5501 14.3542 17.708C15.7391 17.8659 17.1342 17.5154 18.2801 16.7216L20.5063 19.1716C18.761 19.8939 16.8889 20.2602 15.0001 20.2491ZM15.8001 7.82413C15.6046 7.78683 15.432 7.67343 15.3202 7.50886C15.2084 7.3443 15.1665 7.14206 15.2038 6.94663C15.2411 6.7512 15.3545 6.57859 15.5191 6.46677C15.6836 6.35495 15.8859 6.31308 16.0813 6.35038C17.3026 6.58763 18.4145 7.21319 19.2513 8.13381C20.0882 9.05443 20.6051 10.2208 20.7251 11.4591C20.7342 11.5572 20.7239 11.6561 20.6948 11.7502C20.6657 11.8443 20.6183 11.9318 20.5554 12.0076C20.4925 12.0834 20.4152 12.1461 20.3281 12.192C20.241 12.2379 20.1456 12.2663 20.0476 12.2754H19.9776C19.79 12.2762 19.609 12.2067 19.4701 12.0805C19.3313 11.9544 19.2448 11.7809 19.2276 11.5941C19.1384 10.6804 18.7567 9.81992 18.1391 9.14064C17.5215 8.46137 16.7012 7.99963 15.8001 7.82413ZM29.6851 12.3054C29.6338 12.4204 28.3888 15.1804 25.5776 17.6954C25.5046 17.7637 25.4188 17.8168 25.3251 17.8515C25.2313 17.8862 25.1316 17.9018 25.0318 17.8974C24.9319 17.893 24.8339 17.8687 24.7436 17.826C24.6533 17.7832 24.5724 17.7228 24.5058 17.6483C24.4391 17.5738 24.3881 17.4868 24.3555 17.3923C24.323 17.2977 24.3097 17.1977 24.3164 17.098C24.3231 16.9983 24.3496 16.9009 24.3945 16.8116C24.4393 16.7222 24.5016 16.6428 24.5776 16.5779C26.0307 15.2723 27.2444 13.7227 28.1638 11.9991C27.3746 10.522 26.3694 9.17082 25.1813 7.99038C22.3476 5.17663 18.9226 3.74913 15.0001 3.74913C14.1755 3.74814 13.3524 3.81504 12.5388 3.94913C12.4409 3.96759 12.3402 3.96635 12.2427 3.94546C12.1453 3.92457 12.0529 3.88447 11.9712 3.82749C11.8894 3.77051 11.8198 3.69779 11.7664 3.6136C11.713 3.5294 11.677 3.43542 11.6604 3.33713C11.6438 3.23884 11.6469 3.13823 11.6696 3.04118C11.6923 2.94412 11.7342 2.85256 11.7927 2.77186C11.8512 2.69116 11.9252 2.62294 12.0104 2.57117C12.0956 2.5194 12.1902 2.48514 12.2888 2.47038C13.1849 2.32163 14.0917 2.24762 15.0001 2.24913C20.4226 2.24913 24.1251 4.81663 26.2801 6.96913C28.6026 9.29163 29.6426 11.5941 29.6851 11.6954C29.7278 11.7914 29.7499 11.8953 29.7499 12.0004C29.7499 12.1055 29.7278 12.2094 29.6851 12.3054Z" fill="#0E86E3"/>
</svg>
